<svg width="227" height="227" viewBox="0 0 227 227" fill="none" xmlns="http://www.w3.org/2000/svg">
<path d="M226.5 113.5C226.5 175.908 175.908 226.5 113.5 226.5C51.0918 226.5 0.5 175.908 0.5 113.5C0.5 51.0918 51.0918 0.5 113.5 0.5C175.908 0.5 226.5 51.0918 226.5 113.5Z" fill="white"/>
<path d="M62.1518 78.0968L82.656 69.6345L78.9193 157.865L57 161.9L62.1518 78.0968Z" fill="#279D59"/>
<path d="M82.347 69.6345L102.748 74.3945L100.466 160.98L78.7329 157.916L82.347 69.6345Z" fill="#40B873"/>
<path d="M102.748 74.5005L125.931 69L123.974 156.796L100.093 161.172L102.748 74.5005Z" fill="#279D59"/>
<path d="M125.828 69L149.247 72.5965L146.95 160.921L123.767 156.796L125.828 69Z" fill="#40B873"/>
<path d="M148.875 72.5963L169 69.3977L166.675 157.722L146.333 160.921L148.875 72.5963Z" fill="#279D59"/>
<path d="M121.597 103.622C121.597 104.089 121.205 104.467 120.719 104.467H113.455C112.97 104.467 112.577 104.089 112.577 103.622V96.6191C112.577 96.1535 112.97 95.7739 113.455 95.7739H120.719C121.205 95.7739 121.597 96.1535 121.597 96.6191V103.622Z" fill="black" fill-opacity="0.6"/>
<path d="M132.423 103.622C132.423 104.089 132.029 104.467 131.545 104.467H124.279C123.796 104.467 123.401 104.089 123.401 103.622V96.6191C123.401 96.1535 123.796 95.7739 124.279 95.7739H131.545C132.029 95.7739 132.423 96.1535 132.423 96.6191V103.622Z" fill="black" fill-opacity="0.6"/>
<path d="M132.423 125.314C132.423 125.781 132.029 126.16 131.545 126.16H124.279C123.796 126.16 123.401 125.781 123.401 125.314V118.314C123.401 117.845 123.796 117.466 124.279 117.466H131.545C132.029 117.466 132.423 117.845 132.423 118.314V125.314Z" fill="black" fill-opacity="0.6"/>
<path d="M110.775 114.684C110.775 115.151 110.381 115.53 109.895 115.53H102.631C102.146 115.53 101.753 115.151 101.753 114.684V107.683C101.753 107.215 102.146 106.837 102.631 106.837H109.895C110.381 106.837 110.775 107.215 110.775 107.683V114.684Z" fill="black" fill-opacity="0.6"/>
<path d="M121.597 114.684C121.597 115.151 121.205 115.53 120.719 115.53H113.455C112.97 115.53 112.577 115.151 112.577 114.684V107.683C112.577 107.215 112.97 106.837 113.455 106.837H120.719C121.205 106.837 121.597 107.215 121.597 107.683V114.684Z" fill="black" fill-opacity="0.6"/>
<path d="M110.775 125.314C110.775 125.781 110.381 126.16 109.895 126.16H102.631C102.146 126.16 101.753 125.781 101.753 125.314V118.314C101.753 117.845 102.146 117.466 102.631 117.466H109.895C110.381 117.466 110.775 117.845 110.775 118.314V125.314Z" fill="black" fill-opacity="0.6"/>
<path d="M121.597 125.314C121.597 125.781 121.205 126.16 120.719 126.16H113.455C112.97 126.16 112.577 125.781 112.577 125.314V118.314C112.577 117.845 112.97 117.466 113.455 117.466H120.719C121.205 117.466 121.597 117.845 121.597 118.314V125.314Z" fill="black" fill-opacity="0.6"/>
<path d="M110.775 135.943C110.775 136.411 110.381 136.79 109.895 136.79H102.631C102.146 136.79 101.753 136.411 101.753 135.943V128.943C101.753 128.476 102.146 128.096 102.631 128.096H109.895C110.381 128.096 110.775 128.476 110.775 128.943V135.943Z" fill="black" fill-opacity="0.6"/>
<path d="M121.597 135.943C121.597 136.411 121.205 136.79 120.719 136.79H113.455C112.97 136.79 112.577 136.411 112.577 135.943V128.943C112.577 128.476 112.97 128.096 113.455 128.096H120.719C121.205 128.096 121.597 128.476 121.597 128.943V135.943Z" fill="black" fill-opacity="0.6"/>
<path d="M111.225 100.121C111.225 102.761 109.005 104.902 106.265 104.902C103.526 104.902 101.306 102.761 101.306 100.121C101.306 97.4793 103.526 95.3389 106.265 95.3389C109.005 95.3389 111.225 97.4793 111.225 100.121Z" fill="black" fill-opacity="0.6"/>
<path d="M119.537 101.717C119.537 102.185 119.144 102.562 118.659 102.562H111.395C110.91 102.562 110.517 102.185 110.517 101.717V94.7148C110.517 94.2493 110.91 93.8696 111.395 93.8696H118.659C119.144 93.8696 119.537 94.2493 119.537 94.7148V101.717Z" fill="white"/>
<path d="M130.362 101.717C130.362 102.185 129.968 102.562 129.484 102.562H122.218C121.735 102.562 121.34 102.185 121.34 101.717V94.7148C121.34 94.2493 121.735 93.8696 122.218 93.8696H129.484C129.968 93.8696 130.362 94.2493 130.362 94.7148V101.717Z" fill="white"/>
<path d="M130.362 123.41C130.362 123.877 129.968 124.256 129.484 124.256H122.218C121.735 124.256 121.34 123.877 121.34 123.41V116.41C121.34 115.941 121.735 115.562 122.218 115.562H129.484C129.968 115.562 130.362 115.941 130.362 116.41V123.41Z" fill="white"/>
<path d="M108.714 112.78C108.714 113.248 108.32 113.626 107.835 113.626H100.571C100.086 113.626 99.6929 113.248 99.6929 112.78V105.779C99.6929 105.311 100.086 104.933 100.571 104.933H107.835C108.32 104.933 108.714 105.311 108.714 105.779V112.78Z" fill="white"/>
<path d="M119.537 112.78C119.537 113.248 119.144 113.626 118.659 113.626H111.395C110.91 113.626 110.517 113.248 110.517 112.78V105.779C110.517 105.311 110.91 104.933 111.395 104.933H118.659C119.144 104.933 119.537 105.311 119.537 105.779V112.78Z" fill="white"/>
<path d="M108.714 123.41C108.714 123.877 108.32 124.256 107.835 124.256H100.571C100.086 124.256 99.6929 123.877 99.6929 123.41V116.41C99.6929 115.941 100.086 115.562 100.571 115.562H107.835C108.32 115.562 108.714 115.941 108.714 116.41V123.41Z" fill="white"/>
<path d="M119.537 123.41C119.537 123.877 119.144 124.256 118.659 124.256H111.395C110.91 124.256 110.517 123.877 110.517 123.41V116.41C110.517 115.941 110.91 115.562 111.395 115.562H118.659C119.144 115.562 119.537 115.941 119.537 116.41V123.41Z" fill="white"/>
<path d="M108.714 134.039C108.714 134.507 108.32 134.885 107.835 134.885H100.571C100.086 134.885 99.6929 134.507 99.6929 134.039V127.039C99.6929 126.571 100.086 126.192 100.571 126.192H107.835C108.32 126.192 108.714 126.571 108.714 127.039V134.039Z" fill="white"/>
<path d="M119.537 134.039C119.537 134.507 119.144 134.885 118.659 134.885H111.395C110.91 134.885 110.517 134.507 110.517 134.039V127.039C110.517 126.571 110.91 126.192 111.395 126.192H118.659C119.144 126.192 119.537 126.571 119.537 127.039V134.039Z" fill="white"/>
<path d="M109.164 98.2167C109.164 100.857 106.944 102.997 104.205 102.997C101.465 102.997 99.2451 100.857 99.2451 98.2167C99.2451 95.575 101.465 93.4346 104.205 93.4346C106.944 93.4346 109.164 95.575 109.164 98.2167Z" fill="white"/>
</svg>
