<svg width="164" height="133" viewBox="0 0 164 133" fill="none" xmlns="http://www.w3.org/2000/svg">
<path d="M7.5434 12.9746L37.5662 0.905151L32.0948 126.745L0 132.5L7.5434 12.9746Z" fill="#279D59"/>
<path d="M37.1137 0.905151L66.9855 7.69422L63.6434 131.189L31.8218 126.818L37.1137 0.905151Z" fill="#40B873"/>
<path d="M66.9856 7.84514L100.931 0L98.0644 125.221L63.0972 131.462L66.9856 7.84514Z" fill="#279D59"/>
<path d="M100.78 0L135.071 5.12952L131.708 131.104L97.7622 125.221L100.78 0Z" fill="#40B873"/>
<path d="M134.525 5.12957L163.994 0.567505L160.589 126.542L130.803 131.104L134.525 5.12957Z" fill="#279D59"/>
<path d="M94.5853 49.3795C94.5853 50.0468 94.0109 50.585 93.3 50.585H82.6637C81.954 50.585 81.3784 50.0468 81.3784 49.3795V39.3921C81.3784 38.7281 81.954 38.1866 82.6637 38.1866H93.3C94.0109 38.1866 94.5853 38.7281 94.5853 39.3921V49.3795Z" fill="black" fill-opacity="0.6"/>
<path d="M110.435 49.3795C110.435 50.0468 109.859 50.585 109.15 50.585H98.5113C97.804 50.585 97.2261 50.0468 97.2261 49.3795V39.3921C97.2261 38.7281 97.804 38.1866 98.5113 38.1866H109.15C109.859 38.1866 110.435 38.7281 110.435 39.3921V49.3795Z" fill="black" fill-opacity="0.6"/>
<path d="M110.435 80.3194C110.435 80.9857 109.859 81.526 109.15 81.526H98.5113C97.804 81.526 97.2261 80.9857 97.2261 80.3194V70.3354C97.2261 69.6669 97.804 69.1255 98.5113 69.1255H109.15C109.859 69.1255 110.435 69.6669 110.435 70.3354V80.3194Z" fill="black" fill-opacity="0.6"/>
<path d="M78.7395 65.1573C78.7395 65.8247 78.1627 66.365 77.4519 66.365H66.8155C66.1058 66.365 65.5303 65.8247 65.5303 65.1573V55.1721C65.5303 54.5048 66.1058 53.9656 66.8155 53.9656H77.4519C78.1627 53.9656 78.7395 54.5048 78.7395 55.1721V65.1573Z" fill="black" fill-opacity="0.6"/>
<path d="M94.5853 65.1573C94.5853 65.8247 94.0109 66.365 93.3 66.365H82.6637C81.954 66.365 81.3784 65.8247 81.3784 65.1573V55.1721C81.3784 54.5048 81.954 53.9656 82.6637 53.9656H93.3C94.0109 53.9656 94.5853 54.5048 94.5853 55.1721V65.1573Z" fill="black" fill-opacity="0.6"/>
<path d="M78.7395 80.3194C78.7395 80.9857 78.1627 81.526 77.4519 81.526H66.8155C66.1058 81.526 65.5303 80.9857 65.5303 80.3194V70.3354C65.5303 69.6669 66.1058 69.1255 66.8155 69.1255H77.4519C78.1627 69.1255 78.7395 69.6669 78.7395 70.3354V80.3194Z" fill="black" fill-opacity="0.6"/>
<path d="M94.5853 80.3194C94.5853 80.9857 94.0109 81.526 93.3 81.526H82.6637C81.954 81.526 81.3784 80.9857 81.3784 80.3194V70.3354C81.3784 69.6669 81.954 69.1255 82.6637 69.1255H93.3C94.0109 69.1255 94.5853 69.6669 94.5853 70.3354V80.3194Z" fill="black" fill-opacity="0.6"/>
<path d="M78.7395 95.4782C78.7395 96.1456 78.1627 96.6859 77.4519 96.6859H66.8155C66.1058 96.6859 65.5303 96.1456 65.5303 95.4782V85.4942C65.5303 84.8279 66.1058 84.2865 66.8155 84.2865H77.4519C78.1627 84.2865 78.7395 84.8279 78.7395 85.4942V95.4782Z" fill="black" fill-opacity="0.6"/>
<path d="M94.5853 95.4782C94.5853 96.1456 94.0109 96.6859 93.3 96.6859H82.6637C81.954 96.6859 81.3784 96.1456 81.3784 95.4782V85.4942C81.3784 84.8279 81.954 84.2865 82.6637 84.2865H93.3C94.0109 84.2865 94.5853 84.8279 94.5853 85.4942V95.4782Z" fill="black" fill-opacity="0.6"/>
<path d="M79.397 44.3868C79.397 48.1524 76.1462 51.2053 72.135 51.2053C68.1239 51.2053 64.873 48.1524 64.873 44.3868C64.873 40.619 68.1239 37.5662 72.135 37.5662C76.1462 37.5662 79.397 40.619 79.397 44.3868Z" fill="black" fill-opacity="0.6"/>
<path d="M91.5677 46.6639C91.5677 47.3313 90.9933 47.8694 90.2824 47.8694H79.6461C78.9364 47.8694 78.3608 47.3313 78.3608 46.6639V36.6765C78.3608 36.0125 78.9364 35.4711 79.6461 35.4711H90.2824C90.9933 35.4711 91.5677 36.0125 91.5677 36.6765V46.6639Z" fill="white"/>
<path d="M107.418 46.6639C107.418 47.3313 106.842 47.8694 106.133 47.8694H95.4942C94.7869 47.8694 94.209 47.3313 94.209 46.6639V36.6765C94.209 36.0125 94.7869 35.4711 95.4942 35.4711H106.133C106.842 35.4711 107.418 36.0125 107.418 36.6765V46.6639Z" fill="white"/>
<path d="M107.418 77.6038C107.418 78.2701 106.841 78.8104 106.132 78.8104H95.4938C94.7864 78.8104 94.2085 78.2701 94.2085 77.6038V67.6198C94.2085 66.9513 94.7864 66.4099 95.4938 66.4099H106.132C106.841 66.4099 107.418 66.9513 107.418 67.6198V77.6038Z" fill="white"/>
<path d="M75.7224 62.4416C75.7224 63.109 75.1456 63.6493 74.4348 63.6493H63.7984C63.0887 63.6493 62.5132 63.109 62.5132 62.4416V52.4564C62.5132 51.7891 63.0887 51.2499 63.7984 51.2499H74.4348C75.1456 51.2499 75.7224 51.7891 75.7224 52.4564V62.4416Z" fill="white"/>
<path d="M91.5677 62.4416C91.5677 63.109 90.9933 63.6493 90.2824 63.6493H79.6461C78.9364 63.6493 78.3608 63.109 78.3608 62.4416V52.4564C78.3608 51.7891 78.9364 51.2499 79.6461 51.2499H90.2824C90.9933 51.2499 91.5677 51.7891 91.5677 52.4564V62.4416Z" fill="white"/>
<path d="M75.7224 77.6038C75.7224 78.2701 75.1456 78.8104 74.4348 78.8104H63.7984C63.0887 78.8104 62.5132 78.2701 62.5132 77.6038V67.6198C62.5132 66.9513 63.0887 66.4099 63.7984 66.4099H74.4348C75.1456 66.4099 75.7224 66.9513 75.7224 67.6198V77.6038Z" fill="white"/>
<path d="M91.5677 77.6038C91.5677 78.2701 90.9933 78.8104 90.2824 78.8104H79.6461C78.9364 78.8104 78.3608 78.2701 78.3608 77.6038V67.6198C78.3608 66.9513 78.9364 66.4099 79.6461 66.4099H90.2824C90.9933 66.4099 91.5677 66.9513 91.5677 67.6198V77.6038Z" fill="white"/>
<path d="M75.7224 92.7625C75.7224 93.4299 75.1456 93.9702 74.4348 93.9702H63.7984C63.0887 93.9702 62.5132 93.4299 62.5132 92.7625V82.7785C62.5132 82.1122 63.0887 81.5708 63.7984 81.5708H74.4348C75.1456 81.5708 75.7224 82.1122 75.7224 82.7785V92.7625Z" fill="white"/>
<path d="M91.5677 92.7625C91.5677 93.4299 90.9933 93.9702 90.2824 93.9702H79.6461C78.9364 93.9702 78.3608 93.4299 78.3608 92.7625V82.7785C78.3608 82.1122 78.9364 81.5708 79.6461 81.5708H90.2824C90.9933 81.5708 91.5677 82.1122 91.5677 82.7785V92.7625Z" fill="white"/>
<path d="M76.3799 41.6711C76.3799 45.4367 73.1291 48.4896 69.1179 48.4896C65.1068 48.4896 61.856 45.4367 61.856 41.6711C61.856 37.9033 65.1068 34.8505 69.1179 34.8505C73.1291 34.8505 76.3799 37.9033 76.3799 41.6711Z" fill="white"/>
</svg>
